<svg xmlns="http://www.w3.org/2000/svg" width="221.92" height="134.84" viewBox="0 0 221.92 134.84" preserveAspectRatio="xMinYMid" aria-hidden="true" focusable="false"><path d="M43.53,81.91c-8,2.47-11.2,9-13.14,14.42-2.41,6.66-6.24,9.24-11.34,7.61l-.26.84c5.82,2.22,10.46-.57,13.38-8,2.72-7,5.79-12,11.79-13.91l-.43-1Zm-.18,12.91a47,47,0,0,1,5.58-10.53c4.59-6.71,11-10.65,17-10.7,3.85,0,6.6,1.19,8.59,3.54l.76-.68c-.63-1.12-3.33-4.74-9.38-4.75-6.33,0-13.09,4-18.28,11.67a43.1,43.1,0,0,0-5.26,11.12l1,.33ZM73.94,45.63c12.45-3.16,15-8.93,15.69-14,.91-6.84,2.92-9.49,7.17-11.9,1.56-.89,3.08-2,3.39-3.61a2.93,2.93,0,0,0,0-1.18l-.88.08a2.74,2.74,0,0,1-.15,1.13c-.34,1-1.27,1.62-2.75,2.36-5.08,2.55-7.52,5.1-8.7,12.9-.73,4.85-2.59,10.05-14,13.36l.26.85ZM4.17,101.19A.87.87,0,0,0,4.1,101l-.24-.53c4.3-1.28,4.85-5.34,4.85-8.73V89.41c0-12.1,9.63-14.13,14.26-15.1l1.9-.39c4.5-.91,8.38-1.7,11.23-4.48,2.63-2.58,4.16-6.06,6.21-12,3.35-9.7,10.64-11.52,20.56-13,7.73-1.18,8-3.38,8.81-8.7L72,33.5c.68-4.8,2.19-8,5-10.81a20,20,0,0,1,8.36-4.56h0l.35.82A18.54,18.54,0,0,0,78,23.6c-3.14,3.28-4,7.47-4.46,11.14-.84,6.89-1.6,10-11.11,11.52-5.45.87-9.89,1.73-13.2,4.2A14.56,14.56,0,0,0,44,58.18c-2,6-3.55,9.46-6.64,12.57s-8,4.11-12.82,5.08c-6.66,1.35-14.22,2.89-14.22,14.3v.28c0,3.24,0,9.28-6.15,10.84Zm10.94,27.72c-5.1,0-8.11-3.59-8.11-8.27a8.32,8.32,0,0,1,8.1-8.52h.57a9,9,0,0,1,4.2.92v2.48a7.55,7.55,0,0,0-4.18-1.19c-3.76,0-5.85,2.79-5.85,6.13,0,3.54,2.14,6.15,5.67,6.15a8.26,8.26,0,0,0,4-1.07l.75,1.94a9.92,9.92,0,0,1-5.11,1.45ZM27,118.67c2,0,3.12,1.62,3.12,4.09s-1.07,4.08-3.06,4.08S24,125.2,24,122.76,25,118.67,27,118.67Zm0-2.09a5.43,5.43,0,0,0-4,1.64,6.48,6.48,0,0,0-1.69,4.59,6.32,6.32,0,0,0,1.77,4.65A5.45,5.45,0,0,0,27,128.91a5.6,5.6,0,0,0,4.08-1.63,7,7,0,0,0,.05-9A5.44,5.44,0,0,0,27,116.58Zm13.08,12.1h-2l-4.84-11.8h2.66l3.15,8.46h0l3.18-8.46h2.51l-4.75,11.8ZM53,121.46H48.1a2.64,2.64,0,0,1,2.39-2.86h.07C52.2,118.6,53,120.09,53,121.46Zm2.69,1.92v-.72c0-3.67-1.94-6.08-5.08-6.08s-5.16,2.74-5.16,6.1,1.77,6.23,5.73,6.23a7.33,7.33,0,0,0,4.11-1.27l-.67-1.7a6,6,0,0,1-3,.83,3.34,3.34,0,0,1-3.53-3.14,2.09,2.09,0,0,1,0-.25Zm9.88,5.27v-7c0-1.27-.24-2.71-1.84-2.71a5.52,5.52,0,0,0-3.21,1.41v8.34H57.93V116.88h2.16l.31,1.32a6.57,6.57,0,0,1,4.18-1.62c1.74,0,3.58,1.14,3.58,4.21v7.86Zm9.08.26a2.45,2.45,0,0,1-2.75-2.11,2.62,2.62,0,0,1,0-.56V118.9h-2v-2h2v-2.67l2.58-.79v3.46h3.67l-.82,2H74.47v6.42c0,.92.38,1.37,1.15,1.37a3.71,3.71,0,0,0,2-.72l.73,1.69a6.7,6.7,0,0,1-3.69,1.25Zm12-9.59A3,3,0,0,0,85.3,119a3.83,3.83,0,0,0-2.37,1.14v8.48H80.34V116.88H82.5l.33,1.29a4.59,4.59,0,0,1,3.29-1.59,2.8,2.8,0,0,1,1.49.45l-1,2.29Zm9,10c-1.81,4.56-3.71,5.18-5.75,5.18a5.75,5.75,0,0,1-2.55-.53l.72-2a3.52,3.52,0,0,0,1.8.43c1.3,0,2.49-.92,3.48-3.77l-5-11.77h2.77l3.56,8.79h0l3.27-8.79h2.59l-5,12.45Zm19-.42c-4.85,0-7.86-3.49-7.86-8.27s3.33-8.52,8.16-8.52a8.07,8.07,0,0,1,4.19,1v1.93a7.19,7.19,0,0,0-4.26-1.27c-3.66,0-6.15,2.94-6.15,6.76s2.29,6.72,6.13,6.72a8.23,8.23,0,0,0,3.85-1.05l.55,1.5a9.54,9.54,0,0,1-4.61,1.22Zm8.13-14.5a1.27,1.27,0,0,1,0-2.54h0a1.27,1.27,0,1,1,0,2.54Zm-.89,14.25V116.88h1.81v11.78Zm8.24.25a2.3,2.3,0,0,1-2.52-2,3.84,3.84,0,0,1,0-.48v-8h-1.91v-1.54h1.91v-2.59l1.82-.62v3.21H133l-.65,1.54h-3v7.42c0,1,.38,1.44,1.14,1.44a3.52,3.52,0,0,0,2.1-.84l.57,1.3a5.51,5.51,0,0,1-3.11,1.17Zm10.34.87c-1.53,4-3.43,5.06-5.37,5.06a5,5,0,0,1-2.14-.42l.51-1.42a3.7,3.7,0,0,0,1.7.37c1.47,0,2.88-1.45,3.86-4.59l-4.89-11.9H136l3.88,9.64H140l3.55-9.64h1.82l-4.93,12.9Zm19-.87c-4.86,0-7.87-3.49-7.87-8.27s3.33-8.52,8.16-8.52a8.07,8.07,0,0,1,4.19,1v1.93a7.19,7.19,0,0,0-4.26-1.27c-3.66,0-6.15,2.94-6.15,6.76s2.29,6.72,6.12,6.72a8.26,8.26,0,0,0,3.86-1.05l.55,1.5a9.47,9.47,0,0,1-4.6,1.22ZM174,122.72c0,2.79-1.32,4.63-3.51,4.63s-3.51-1.84-3.51-4.63,1.27-4.58,3.48-4.58S174,119.93,174,122.72Zm1.84,0a6.62,6.62,0,0,0-1.64-4.66,5.08,5.08,0,0,0-3.74-1.52,5,5,0,0,0-3.68,1.52,7.48,7.48,0,0,0,0,9.37,5,5,0,0,0,3.66,1.44,5.08,5.08,0,0,0,3.73-1.47A6.55,6.55,0,0,0,175.84,122.72Zm10.09,5.93-.41-1.21a6.1,6.1,0,0,1-3.81,1.47c-1.6,0-3.59-.82-3.59-4.14v-7.89h1.82v7.72c0,2,.82,2.74,2.29,2.74a4.25,4.25,0,0,0,3.14-1.57v-8.89h1.82v7.83a18.56,18.56,0,0,0,.24,3.94Zm11.88,0v-7.24c0-1.47-.25-3.11-2-3.11a6,6,0,0,0-3.66,1.84v8.51h-1.82V116.88h1.49l.25,1.39a6.78,6.78,0,0,1,4.21-1.69c1.69,0,3.39,1.22,3.39,4.16v7.91Zm9.57.27c-3.62,0-5.48-2.81-5.48-6s1.89-6.33,5.82-6.33a6.38,6.38,0,0,1,3,.75v1.72a5.59,5.59,0,0,0-3.06-.87c-2.47,0-3.91,2-3.91,4.63s1.44,4.53,3.86,4.53a5.36,5.36,0,0,0,2.94-.87l.57,1.29a7,7,0,0,1-3.73,1.15Zm6.89-14.51a1.27,1.27,0,1,1,1.27-1.27A1.27,1.27,0,0,1,214.27,114.41Zm-.9,14.24V116.88h1.82v11.77Zm7,.26a1.94,1.94,0,0,1-2.08-1.77,2.67,2.67,0,0,1,0-.4V111h1.83v14.9c0,1.12.27,1.34,1,1.34a2.57,2.57,0,0,0,.62-.08l.22,1.33a3.3,3.3,0,0,1-1.57.4ZM115,18.73l.8-3,1.27-.43.36-1.22-9,3.08.43,1.11,4.31.74a2.5,2.5,0,0,0,1.87-.3Zm5.64,18.53a4.6,4.6,0,0,0,2.14-1,1,1,0,0,0,0-1c-.19-.53-.7-2.3-.33-3.06s1.12-.94,2.08-1.16a1.8,1.8,0,0,0,1.62-1.52,4.89,4.89,0,0,0-.9-2.84,86.5,86.5,0,0,1-5.14-10.78c-.83-2.4-.66-4.48,3.33-6,.83-.32,2-.68,2.78-.9,3-3.94,6.48-7.2,8.47-8.39A3.49,3.49,0,0,1,136.86,0c.67.05.5.37.38.66-1.2,2.86-3,7.43-3.94,10.52a27.69,27.69,0,0,1,5.09-4.14,3.31,3.31,0,0,1,2.19-.62c.58,0,.59.31.45.55-.33.56-2.63,4.87-3.51,7a35.42,35.42,0,0,1,3.9,4.13l2.22,2.66c1.49,1.72,4.44,5,8.06,8.74,3.83,3.92,7.72,8.17,9.77,10.1,1.14,1.21,1.58,1.57,3.18,3.15,1.06,1,5.37,5.27,5.89,5.82s1.28,1.48,1.58,1.84A13.9,13.9,0,0,1,175,56.13a15.77,15.77,0,0,1,.18,4.85,13.46,13.46,0,0,1-.34,2.08c-.24,1.08-1.09,3.87-3.06,5.09-2.16,1.34-7.23,2.41-9.69,1.65a4.24,4.24,0,0,1-2.3-1.88,6.63,6.63,0,0,0-2.15-2,56.15,56.15,0,0,0-17.54-6.79c-3.07,1.19-9,1-16.39-2.29-3.28,3.62-5.94,9.71-7.65,14.68-2.17,6.28-4.2,15.32-7.41,23.81-2.09-7.79-7.23-15.42-9.69-19-3.15-4.55-4.15-5.69-2.66-10.52A41,41,0,0,1,105,51.13a25.55,25.55,0,0,1-7.62-6l.41-.72A20.21,20.21,0,0,0,108,49.63c3.63.77,8.89,1.18,12.45-.67,1.78-.93,2-2.43,1.28-4.61-.46-1.43-.88-2.68.1-4.32.73-1.23,0-2.33-1.2-2.77ZM0,102.26a9.3,9.3,0,0,0,8.69,5,9.92,9.92,0,0,0,8.54-4.64A23.84,23.84,0,0,0,19.81,95c1.35-6.67,2.77-14.06,16.56-17.78a100.9,100.9,0,0,0,9.91-3C53,71.48,56.5,67.87,58.54,61.84c2-5.85,2.93-8.29,5.07-10.72a10.86,10.86,0,0,1,6.08-3.32l-.21-.9a13.75,13.75,0,0,0-7.1,3.3c-2.3,2.14-3.79,5.09-5.9,11.3-1.27,3.75-3.29,7.86-10.85,11a96.48,96.48,0,0,1-10,3.12C21,79.62,19.21,88.05,18,94.53c-.57,3.06-1.11,5.37-2.26,7.26a8.54,8.54,0,0,1-7.11,4.12A8.74,8.74,0,0,1,.7,101.72l-.69.54Zm57.5-31c2.84-3,6.42-4.69,11.87-7.14,7.2-3.24,14-7.39,13.46-19.12l-1,.09c0,11.15-6.78,14.27-13.39,17.33-4.21,2-8.54,3.91-11.69,8.16Z" fill="#0056be"/></svg>
